<?xml version="1.0" encoding="UTF-8" standalone="no"?>
<!-- Created with Inkscape (http://www.inkscape.org/) -->

<svg
   xmlns:dc="http://purl.org/dc/elements/1.1/"
   xmlns:cc="http://creativecommons.org/ns#"
   xmlns:rdf="http://www.w3.org/1999/02/22-rdf-syntax-ns#"
   xmlns:svg="http://www.w3.org/2000/svg"
   xmlns="http://www.w3.org/2000/svg"
   xmlns:sodipodi="http://sodipodi.sourceforge.net/DTD/sodipodi-0.dtd"
   xmlns:inkscape="http://www.inkscape.org/namespaces/inkscape"
   width="40"
   height="15"
   viewBox="0 0 37.5 14.0625"
   id="svg2"
   version="1.1"
   inkscape:version="0.92.5 (2060ec1f9f, 2020-04-08)"
   sodipodi:docname="ellipsis_white.svg">
  <defs
     id="defs4" />
  <sodipodi:namedview
     id="base"
     pagecolor="#ffffff"
     bordercolor="#666666"
     borderopacity="1.0"
     inkscape:pageopacity="0.0"
     inkscape:pageshadow="2"
     inkscape:zoom="7.9195959"
     inkscape:cx="30.355253"
     inkscape:cy="9.5216678"
     inkscape:document-units="px"
     inkscape:current-layer="g3370"
     showgrid="false"
     fit-margin-top="0"
     fit-margin-left="0"
     fit-margin-right="0"
     fit-margin-bottom="0"
     inkscape:window-width="958"
     inkscape:window-height="991"
     inkscape:window-x="952"
     inkscape:window-y="0"
     inkscape:window-maximized="0"
     inkscape:pagecheckerboard="true"
     units="px" />
  <metadata
     id="metadata7">
    <rdf:RDF>
      <cc:Work
         rdf:about="">
        <dc:format>image/svg+xml</dc:format>
        <dc:type
           rdf:resource="http://purl.org/dc/dcmitype/StillImage" />
        <dc:title></dc:title>
      </cc:Work>
    </rdf:RDF>
  </metadata>
  <g
     inkscape:label="Layer 1"
     inkscape:groupmode="layer"
     id="layer1"
     transform="translate(213.30737,-694.33133)">
    <g
       id="g3370"
       transform="matrix(0,1.0985164,-1.0985164,0,-150.08677,686.51715)">
      <path
         style="fill:#ffffff;fill-opacity:1;stroke-width:0.21250001"
         d="m 17.701775,34.793285 a 1.5153375,1.5153375 0 0 1 -1.515337,1.515338 1.5153375,1.5153375 0 0 1 -1.515338,-1.515338 1.5153375,1.5153375 0 0 1 1.515338,-1.515337 1.5153375,1.5153375 0 0 1 1.515337,1.515337 z"
         id="circle3352" />
      <path
         style="fill:#ffffff;fill-opacity:1;stroke-width:0.21250001"
         d="m 17.701775,40.467541 a 1.5153375,1.5153375 0 0 1 -1.515337,1.515337 1.5153375,1.5153375 0 0 1 -1.515338,-1.515337 1.5153375,1.5153375 0 0 1 1.515338,-1.515338 1.5153375,1.5153375 0 0 1 1.515337,1.515338 z"
         id="circle3356" />
      <path
         style="fill:#ffffff;fill-opacity:1;stroke-width:0.21250001"
         d="m 17.701775,46.171547 a 1.5153375,1.5153375 0 0 1 -1.515337,1.515337 1.5153375,1.5153375 0 0 1 -1.515338,-1.515337 1.5153375,1.5153375 0 0 1 1.515338,-1.515338 1.5153375,1.5153375 0 0 1 1.515337,1.515338 z"
         id="circle3360" />
    </g>
  </g>
</svg>
